# Blender v3.5.0 OBJ File: 'environment.blend'
# www.blender.org
mtllib portal.mtl
o Key_Cube.004
v 3.410703 0.015833 0.084812
v 3.410703 0.079945 0.084812
v 3.410703 0.015833 -0.084812
v 3.410703 0.079945 -0.084812
v 3.580328 0.015833 0.084812
v 3.580328 0.079945 0.084812
v 3.580328 0.015833 -0.084812
v 3.580328 0.079945 -0.084812
v 3.392118 0.008808 -0.000000
v 3.392118 0.047889 0.103398
v 3.392118 0.086970 0.000000
v 3.392118 0.047889 -0.103398
v 3.495516 0.008808 -0.103398
v 3.495516 0.086970 -0.103398
v 3.598914 0.047889 -0.103398
v 3.598914 0.008808 0.000000
v 3.598914 0.086970 0.000000
v 3.598914 0.047889 0.103398
v 3.495516 0.008808 0.103398
v 3.495516 0.086970 0.103398
v 3.353115 0.047889 0.000000
v 3.495516 0.047889 -0.142401
v 3.637917 0.047889 0.000000
v 3.495516 0.047889 0.142401
v 3.495516 -0.005934 0.000000
v 3.495516 0.101712 0.000000
vt 0.375000 0.000000
vt 0.500000 0.000000
vt 0.500000 0.125000
vt 0.375000 0.125000
vt 0.625000 0.000000
vt 0.625000 0.125000
vt 0.625000 0.250000
vt 0.500000 0.250000
vt 0.375000 0.250000
vt 0.500000 0.375000
vt 0.375000 0.375000
vt 0.625000 0.375000
vt 0.625000 0.500000
vt 0.500000 0.500000
vt 0.375000 0.500000
vt 0.500000 0.625000
vt 0.375000 0.625000
vt 0.625000 0.625000
vt 0.625000 0.750000
vt 0.500000 0.750000
vt 0.375000 0.750000
vt 0.500000 0.875000
vt 0.375000 0.875000
vt 0.625000 0.875000
vt 0.625000 1.000000
vt 0.500000 1.000000
vt 0.375000 1.000000
vt 0.125000 0.500000
vt 0.250000 0.500000
vt 0.250000 0.625000
vt 0.125000 0.625000
vt 0.250000 0.750000
vt 0.125000 0.750000
vt 0.750000 0.500000
vt 0.750000 0.625000
vt 0.875000 0.500000
vt 0.875000 0.625000
vt 0.875000 0.750000
vt 0.750000 0.750000
vn -0.7213 -0.6479 0.2449
vn -0.7213 0.6479 0.2449
vn -0.7213 0.6479 -0.2449
vn -0.7213 -0.6479 -0.2449
vn -0.2449 -0.6479 -0.7213
vn -0.2449 0.6479 -0.7213
vn 0.2449 0.6479 -0.7213
vn 0.2449 -0.6479 -0.7213
vn 0.7213 -0.6479 -0.2449
vn 0.7213 0.6479 -0.2449
vn 0.7213 0.6479 0.2449
vn 0.7213 -0.6479 0.2449
vn 0.2449 -0.6479 0.7213
vn 0.2449 0.6479 0.7213
vn -0.2449 0.6479 0.7213
vn -0.2449 -0.6479 0.7213
vn -0.1263 -0.9839 -0.1263
vn 0.1263 -0.9839 -0.1263
vn 0.1263 -0.9839 0.1263
vn -0.1263 -0.9839 0.1263
vn 0.1263 0.9839 -0.1263
vn -0.1263 0.9839 -0.1263
vn -0.1263 0.9839 0.1263
vn 0.1263 0.9839 0.1263
usemtl None
s off
f 1/1/1 10/2/1 21/3/1 9/4/1
f 10/2/2 2/5/2 11/6/2 21/3/2
f 21/3/3 11/6/3 4/7/3 12/8/3
f 9/4/4 21/3/4 12/8/4 3/9/4
f 3/9/5 12/8/5 22/10/5 13/11/5
f 12/8/6 4/7/6 14/12/6 22/10/6
f 22/10/7 14/12/7 8/13/7 15/14/7
f 13/11/8 22/10/8 15/14/8 7/15/8
f 7/15/9 15/14/9 23/16/9 16/17/9
f 15/14/10 8/13/10 17/18/10 23/16/10
f 23/16/11 17/18/11 6/19/11 18/20/11
f 16/17/12 23/16/12 18/20/12 5/21/12
f 5/21/13 18/20/13 24/22/13 19/23/13
f 18/20/14 6/19/14 20/24/14 24/22/14
f 24/22/15 20/24/15 2/25/15 10/26/15
f 19/23/16 24/22/16 10/26/16 1/27/16
f 3/28/17 13/29/17 25/30/17 9/31/17
f 13/29/18 7/15/18 16/17/18 25/30/18
f 25/30/19 16/17/19 5/21/19 19/32/19
f 9/31/20 25/30/20 19/32/20 1/33/20
f 8/13/21 14/34/21 26/35/21 17/18/21
f 14/34/22 4/36/22 11/37/22 26/35/22
f 26/35/23 11/37/23 2/38/23 20/39/23
f 17/18/24 26/35/24 20/39/24 6/19/24
o Portal_Cylinder.001
v 2.735022 -0.052869 -1.000000
v 3.410703 0.015833 0.084812
v 2.735022 0.052869 -1.000000
v 2.930112 -0.052869 -0.980785
v 3.410703 0.015833 -0.084812
v 2.930112 0.052869 -0.980785
v 3.117705 -0.052869 -0.923880
v 3.580328 0.015833 0.084812
v 3.117705 0.052869 -0.923880
v 3.580328 0.015833 -0.084812
v 3.290592 -0.052869 -0.831470
v 3.290592 0.052869 -0.831470
v 3.442129 -0.052869 -0.707107
v 3.392118 0.008808 -0.000000
v 3.442129 0.052869 -0.707107
v 3.392118 0.047889 0.103398
v 3.566491 -0.052869 -0.555570
v 3.566491 0.052869 -0.555570
v 3.392118 0.047889 -0.103398
v 3.658901 -0.052869 -0.382683
v 3.495516 0.008808 -0.103398
v 3.658901 0.052869 -0.382683
v 3.715807 -0.052869 -0.195090
v 3.598914 0.047889 -0.103398
v 3.715807 0.052869 -0.195090
v 3.598914 0.008808 0.000000
v 3.735022 -0.052869 0.000000
v 3.735022 0.052869 0.000000
v 3.598914 0.047889 0.103398
v 3.715807 -0.052869 0.195090
v 3.495516 0.008808 0.103398
v 3.715807 0.052869 0.195090
v 3.658901 -0.052869 0.382683
v 3.353115 0.047889 0.000000
v 3.495516 0.047889 -0.142401
v 3.658901 0.052869 0.382683
v 3.566491 -0.052869 0.555570
v 3.637917 0.047889 0.000000
v 3.566491 0.052869 0.555570
v 3.495516 0.047889 0.142401
v 3.495516 -0.005934 0.000000
v 3.442129 -0.052869 0.707107
v 3.442129 0.052869 0.707107
v 3.290592 -0.052869 0.831470
v 3.290592 0.052869 0.831470
v 3.117705 -0.052869 0.923880
v 3.117705 0.052869 0.923880
v 2.930112 -0.052869 0.980785
v 2.930112 0.052869 0.980785
v 2.735022 -0.052869 1.000000
v 2.735022 0.052869 1.000000
v 2.539932 -0.052869 0.980785
v 2.539932 0.052869 0.980785
v 2.352338 -0.052869 0.923880
v 2.352338 0.052869 0.923880
v 2.179451 -0.052869 0.831470
v 2.179451 0.052869 0.831470
v 2.027915 -0.052869 0.707107
v 2.027915 0.052869 0.707107
v 1.903552 -0.052869 0.555570
v 1.903552 0.052869 0.555570
v 1.811142 -0.052869 0.382683
v 1.811142 0.052869 0.382683
v 1.754237 -0.052869 0.195090
v 1.754237 0.052869 0.195090
v 1.735022 -0.052869 0.000000
v 1.735022 0.052869 0.000000
v 1.754237 -0.052869 -0.195090
v 1.754237 0.052869 -0.195090
v 1.811142 -0.052869 -0.382683
v 1.811142 0.052869 -0.382683
v 1.903552 -0.052869 -0.555570
v 1.903552 0.052869 -0.555570
v 2.027915 -0.052869 -0.707107
v 2.027915 0.052869 -0.707107
v 2.179451 -0.052869 -0.831470
v 2.179451 0.052869 -0.831470
v 2.352338 -0.052869 -0.923880
v 2.352338 0.052869 -0.923880
v 2.539932 -0.052869 -0.980785
v 2.539932 0.052869 -0.980785
v 3.495516 0.052869 -0.137431
v 3.508691 0.052869 -0.133455
v 3.632947 0.052869 0.000000
v 3.628971 0.052869 0.013175
v 3.596026 0.052869 0.100511
v 3.598914 0.052869 -0.090223
v 3.596026 0.052869 -0.100511
v 3.585739 0.052869 0.103398
v 3.548964 0.052869 0.117270
v 3.358085 0.052869 0.000000
v 3.395005 0.052869 0.100511
v 3.392118 0.052869 0.090223
v 3.362061 0.052869 -0.013175
v 3.395005 0.052869 -0.100511
v 3.405293 0.052869 -0.103398
v 3.495516 0.052869 0.137431
v 3.482341 0.052869 0.133455
vt 1.000000 0.500000
vt 1.000000 1.000000
vt 0.968750 1.000000
vt 0.968750 0.500000
vt 0.937500 1.000000
vt 0.937500 0.500000
vt 0.906250 1.000000
vt 0.906250 0.500000
vt 0.875000 1.000000
vt 0.875000 0.500000
vt 0.843750 1.000000
vt 0.843750 0.500000
vt 0.812500 1.000000
vt 0.812500 0.500000
vt 0.781250 1.000000
vt 0.781250 0.500000
vt 0.750000 1.000000
vt 0.750000 0.500000
vt 0.718750 1.000000
vt 0.718750 0.500000
vt 0.687500 1.000000
vt 0.687500 0.500000
vt 0.656250 1.000000
vt 0.656250 0.500000
vt 0.625000 1.000000
vt 0.625000 0.500000
vt 0.593750 1.000000
vt 0.593750 0.500000
vt 0.562500 1.000000
vt 0.562500 0.500000
vt 0.531250 1.000000
vt 0.531250 0.500000
vt 0.500000 1.000000
vt 0.500000 0.500000
vt 0.468750 1.000000
vt 0.468750 0.500000
vt 0.437500 1.000000
vt 0.437500 0.500000
vt 0.406250 1.000000
vt 0.406250 0.500000
vt 0.375000 1.000000
vt 0.375000 0.500000
vt 0.343750 1.000000
vt 0.343750 0.500000
vt 0.312500 1.000000
vt 0.312500 0.500000
vt 0.281250 1.000000
vt 0.281250 0.500000
vt 0.250000 1.000000
vt 0.250000 0.500000
vt 0.218750 1.000000
vt 0.218750 0.500000
vt 0.187500 1.000000
vt 0.187500 0.500000
vt 0.156250 1.000000
vt 0.156250 0.500000
vt 0.125000 1.000000
vt 0.125000 0.500000
vt 0.093750 1.000000
vt 0.093750 0.500000
vt 0.062500 1.000000
vt 0.062500 0.500000
vt 0.454172 0.225185
vt 0.445346 0.221855
vt 0.471731 0.158156
vt 0.485388 0.203178
vt 0.490000 0.250000
vt 0.485388 0.296822
vt 0.471731 0.341844
vt 0.456641 0.274123
vt 0.457334 0.271654
vt 0.465502 0.250000
vt 0.464548 0.246838
vt 0.456641 0.225877
vt 0.408396 0.274123
vt 0.410865 0.274815
vt 0.432519 0.282983
vt 0.435681 0.282029
vt 0.449553 0.383337
vt 0.419706 0.419706
vt 0.383337 0.449553
vt 0.341844 0.471731
vt 0.296822 0.485388
vt 0.250000 0.490000
vt 0.203178 0.485388
vt 0.158156 0.471731
vt 0.116663 0.449553
vt 0.080294 0.419706
vt 0.050447 0.383337
vt 0.028269 0.341844
vt 0.014612 0.296822
vt 0.010000 0.250000
vt 0.014612 0.203178
vt 0.028269 0.158156
vt 0.050447 0.116663
vt 0.080294 0.080294
vt 0.116663 0.050447
vt 0.158156 0.028269
vt 0.203178 0.014612
vt 0.250000 0.010000
vt 0.296822 0.014612
vt 0.341844 0.028269
vt 0.383337 0.050447
vt 0.419706 0.080294
vt 0.449553 0.116663
vt 0.432519 0.217017
vt 0.429357 0.217971
vt 0.408396 0.225877
vt 0.407703 0.228347
vt 0.399535 0.250000
vt 0.400489 0.253162
vt 0.031250 1.000000
vt 0.031250 0.500000
vt 0.000000 1.000000
vt 0.000000 0.500000
vt 0.703178 0.485388
vt 0.750000 0.490000
vt 0.796822 0.485388
vt 0.841844 0.471731
vt 0.883337 0.449553
vt 0.919706 0.419706
vt 0.949553 0.383337
vt 0.971731 0.341844
vt 0.985388 0.296822
vt 0.990000 0.250000
vt 0.985388 0.203178
vt 0.971731 0.158156
vt 0.949553 0.116663
vt 0.919706 0.080294
vt 0.883337 0.050447
vt 0.841844 0.028269
vt 0.796822 0.014612
vt 0.750000 0.010000
vt 0.703178 0.014612
vt 0.658156 0.028269
vt 0.616663 0.050447
vt 0.580294 0.080294
vt 0.550447 0.116663
vt 0.528269 0.158156
vt 0.514612 0.203178
vt 0.510000 0.250000
vt 0.514612 0.296822
vt 0.528269 0.341844
vt 0.550447 0.383337
vt 0.580294 0.419706
vt 0.616663 0.449553
vt 0.658156 0.471731
vt 0.375000 0.000000
vt 0.375000 0.125000
vt 0.500000 0.125000
vt 0.500000 0.000000
vt 0.519418 0.000000
vt 0.515927 0.125000
vt 0.519063 0.012521
vt 0.500000 0.250000
vt 0.519418 0.250000
vt 0.516392 0.141131
vt 0.375000 0.250000
vt 0.375000 0.375000
vt 0.500000 0.375000
vt 0.515927 0.375000
vt 0.519063 0.262521
vt 0.500000 0.500000
vt 0.519418 0.500000
vt 0.516392 0.391131
vt 0.375000 0.500000
vt 0.375000 0.625000
vt 0.500000 0.625000
vt 0.515927 0.625000
vt 0.519063 0.512521
vt 0.500000 0.750000
vt 0.519418 0.750000
vt 0.516393 0.641131
vt 0.375000 0.750000
vt 0.375000 0.875000
vt 0.500000 0.875000
vt 0.515927 0.875000
vt 0.517794 0.808358
vt 0.519063 0.762521
vt 0.500000 1.000000
vt 0.519418 1.000000
vt 0.516393 0.891131
vt 0.375000 1.000000
vt 0.125000 0.500000
vt 0.125000 0.625000
vt 0.250000 0.625000
vt 0.250000 0.500000
vt 0.250000 0.750000
vt 0.125000 0.750000
vn 0.0980 0.0000 -0.9952
vn 0.2903 0.0000 -0.9569
vn 0.4714 0.0000 -0.8819
vn 0.6344 0.0000 -0.7730
vn 0.7730 0.0000 -0.6344
vn 0.8819 0.0000 -0.4714
vn 0.9569 0.0000 -0.2903
vn 0.9952 0.0000 -0.0980
vn 0.9952 0.0000 0.0980
vn 0.9569 0.0000 0.2903
vn 0.8819 0.0000 0.4714
vn 0.7730 0.0000 0.6344
vn 0.6344 0.0000 0.7730
vn 0.4714 0.0000 0.8819
vn 0.2903 0.0000 0.9569
vn 0.0980 0.0000 0.9952
vn -0.0980 0.0000 0.9952
vn -0.2903 0.0000 0.9569
vn -0.4714 0.0000 0.8819
vn -0.6344 0.0000 0.7730
vn -0.7730 0.0000 0.6344
vn -0.8819 0.0000 0.4714
vn -0.9569 0.0000 0.2903
vn -0.9952 0.0000 0.0980
vn -0.9952 0.0000 -0.0980
vn -0.9569 0.0000 -0.2903
vn -0.8819 0.0000 -0.4714
vn -0.7730 0.0000 -0.6344
vn -0.6344 0.0000 -0.7730
vn -0.4714 0.0000 -0.8819
vn 0.0000 1.0000 -0.0000
vn -0.2903 0.0000 -0.9569
vn -0.0980 0.0000 -0.9952
vn 0.0000 -1.0000 0.0000
vn 0.7213 0.6479 -0.2449
vn 0.6886 -0.6783 -0.2564
vn 0.7460 -0.6053 0.2778
vn 0.7213 0.6479 0.2449
vn 0.2449 0.6479 0.7213
vn 0.2564 -0.6783 0.6886
vn -0.2778 -0.6053 0.7460
vn -0.2449 0.6479 0.7213
vn -0.7213 0.6479 0.2449
vn -0.6886 -0.6783 0.2564
vn -0.7460 -0.6053 -0.2778
vn -0.7213 0.6479 -0.2449
vn -0.2449 0.6479 -0.7213
vn -0.2564 -0.6783 -0.6886
vn 0.2778 -0.6053 -0.7460
vn 0.2449 0.6479 -0.7213
vn 0.1263 0.9839 0.1263
vn -0.1263 0.9839 0.1263
vn -0.1263 0.9839 -0.1263
vn 0.1263 0.9839 -0.1263
usemtl None
s off
f 27/40/25 29/41/25 32/42/25 30/43/25
f 30/43/26 32/42/26 35/44/26 33/45/26
f 33/45/27 35/44/27 38/46/27 37/47/27
f 37/47/28 38/46/28 41/48/28 39/49/28
f 39/49/29 41/48/29 44/50/29 43/51/29
f 43/51/30 44/50/30 48/52/30 46/53/30
f 46/53/31 48/52/31 51/54/31 49/55/31
f 49/55/32 51/54/32 54/56/32 53/57/32
f 53/57/33 54/56/33 58/58/33 56/59/33
f 56/59/34 58/58/34 62/60/34 59/61/34
f 59/61/35 62/60/35 65/62/35 63/63/35
f 63/63/36 65/62/36 69/64/36 68/65/36
f 68/65/37 69/64/37 71/66/37 70/67/37
f 70/67/38 71/66/38 73/68/38 72/69/38
f 72/69/39 73/68/39 75/70/39 74/71/39
f 74/71/40 75/70/40 77/72/40 76/73/40
f 76/73/41 77/72/41 79/74/41 78/75/41
f 78/75/42 79/74/42 81/76/42 80/77/42
f 80/77/43 81/76/43 83/78/43 82/79/43
f 82/79/44 83/78/44 85/80/44 84/81/44
f 84/81/45 85/80/45 87/82/45 86/83/45
f 86/83/46 87/82/46 89/84/46 88/85/46
f 88/85/47 89/84/47 91/86/47 90/87/47
f 90/87/48 91/86/48 93/88/48 92/89/48
f 92/89/49 93/88/49 95/90/49 94/91/49
f 94/91/50 95/90/50 97/92/50 96/93/50
f 96/93/51 97/92/51 99/94/51 98/95/51
f 98/95/52 99/94/52 101/96/52 100/97/52
f 100/97/53 101/96/53 103/98/53 102/99/53
f 102/99/54 103/98/54 105/100/54 104/101/54
f 115/102/55 116/103/55 62/104/55 58/105/55 54/106/55 51/107/55 48/108/55 114/109/55 113/110/55 110/111/55 111/112/55 112/113/55
f 121/114/55 122/115/55 108/116/55 109/117/55 114/109/55 48/108/55 44/118/55 41/119/55 38/120/55 35/121/55 32/122/55 29/123/55 107/124/55 105/125/55 103/126/55 101/127/55 99/128/55 97/129/55 95/130/55 93/131/55 91/132/55 89/133/55 87/134/55 85/135/55 83/136/55 81/137/55 79/138/55 77/139/55 75/140/55 73/141/55 71/142/55 69/143/55 65/144/55 62/104/55 116/103/55 123/145/55 124/146/55 118/147/55 119/148/55 117/149/55 120/150/55
f 104/101/56 105/100/56 107/151/56 106/152/56
f 106/152/57 107/151/57 29/153/57 27/154/57
f 106/155/58 27/156/58 30/157/58 33/158/58 37/159/58 39/160/58 43/161/58 46/162/58 49/163/58 53/164/58 56/165/58 59/166/58 63/167/58 68/168/58 70/169/58 72/170/58 74/171/58 76/172/58 78/173/58 80/174/58 82/175/58 84/176/58 86/177/58 88/178/58 90/179/58 92/180/58 94/181/58 96/182/58 98/183/58 100/184/58 102/185/58 104/186/58
f 28/187/59 40/188/59 60/189/59 42/190/59
f 118/191/60 42/190/60 60/189/60 117/192/60 119/193/60
f 117/192/61 60/189/61 45/194/61 121/195/61 120/196/61
f 40/188/62 31/197/62 45/194/62 60/189/62
f 31/197/63 47/198/63 61/199/63 45/194/63
f 121/195/64 45/194/64 61/199/64 108/200/64 122/201/64
f 108/200/65 61/199/65 50/202/65 114/203/65 109/204/65
f 47/198/66 36/205/66 50/202/66 61/199/66
f 36/205/67 52/206/67 64/207/67 50/202/67
f 114/203/68 50/202/68 64/207/68 110/208/68 113/209/68
f 64/207/69 55/210/69 112/211/69 111/212/69 110/208/69
f 52/206/70 34/213/70 55/210/70 64/207/70
f 34/213/71 57/214/71 66/215/71 55/210/71
f 112/211/72 55/210/72 66/215/72 123/216/72 116/217/72 115/218/72
f 66/215/73 42/219/73 118/220/73 124/221/73 123/216/73
f 57/214/74 28/222/74 42/219/74 66/215/74
f 31/223/75 40/224/75 67/225/75 47/226/75
f 47/226/76 67/225/76 52/206/76 36/205/76
f 67/225/77 57/227/77 34/213/77 52/206/77
f 40/224/78 28/228/78 57/227/78 67/225/78
